<svg id="visual" viewBox="0 0 960 540" width="960" height="540" xmlns="http://www.w3.org/2000/svg" xmlns:xlink="http://www.w3.org/1999/xlink" version="1.1"><g fill="#f97316"><circle r="32" cx="531" cy="118"></circle><circle r="2" cx="697" cy="370"></circle><circle r="24" cx="92" cy="77"></circle><circle r="17" cx="934" cy="311"></circle><circle r="14" cx="888" cy="396"></circle><circle r="2" cx="77" cy="474"></circle><circle r="22" cx="505" cy="241"></circle><circle r="7" cx="466" cy="82"></circle><circle r="10" cx="415" cy="526"></circle><circle r="22" cx="672" cy="58"></circle><circle r="7" cx="8" cy="134"></circle><circle r="3" cx="393" cy="285"></circle><circle r="1" cx="828" cy="197"></circle><circle r="4" cx="752" cy="428"></circle><circle r="21" cx="582" cy="396"></circle><circle r="10" cx="687" cy="196"></circle><circle r="22" cx="879" cy="246"></circle><circle r="13" cx="623" cy="171"></circle><circle r="4" cx="329" cy="459"></circle><circle r="19" cx="803" cy="125"></circle><circle r="5" cx="743" cy="236"></circle><circle r="20" cx="215" cy="195"></circle><circle r="4" cx="507" cy="476"></circle><circle r="28" cx="790" cy="340"></circle><circle r="5" cx="5" cy="49"></circle><circle r="30" cx="582" cy="276"></circle></g></svg>