<svg id="visual" viewBox="0 0 960 540" width="960" height="540" xmlns="http://www.w3.org/2000/svg" xmlns:xlink="http://www.w3.org/1999/xlink" version="1.1"><rect x="0" y="0" width="960" height="540" fill="#fb923c"></rect><path d="M0 380L22.8 390.5C45.7 401 91.3 422 137 415C182.7 408 228.3 373 274 374.8C319.7 376.7 365.3 415.3 411.2 424.2C457 433 503 412 548.8 399.8C594.7 387.7 640.3 384.3 686 394.2C731.7 404 777.3 427 823 429C868.7 431 914.3 412 937.2 402.5L960 393L960 541L937.2 541C914.3 541 868.7 541 823 541C777.3 541 731.7 541 686 541C640.3 541 594.7 541 548.8 541C503 541 457 541 411.2 541C365.3 541 319.7 541 274 541C228.3 541 182.7 541 137 541C91.3 541 45.7 541 22.8 541L0 541Z" fill="#f97316" stroke-linecap="round" stroke-linejoin="miter"></path></svg>